<svg width="24" height="24" viewBox="0 0 24 24" fill="none" xmlns="http://www.w3.org/2000/svg">
<path d="M21 18V11C21 6.02944 16.9706 2 12 2V2C7.02944 2 3 6.02944 3 11V18" stroke="#2D72DB" stroke-width="2" stroke-linecap="round"/>
<path d="M16 14C16 12.8954 16.8954 12 18 12H19C20.1046 12 21 12.8954 21 14V18C21 19.1046 20.1046 20 19 20H18C16.8954 20 16 19.1046 16 18V14Z" stroke="#2D72DB" stroke-width="2"/>
<path d="M8 14C8 12.8954 7.10457 12 6 12H5C3.89543 12 3 12.8954 3 14V18C3 19.1046 3.89543 20 5 20H6C7.10457 20 8 19.1046 8 18V14Z" stroke="#2D72DB" stroke-width="2"/>
</svg>
